<mxfile host="Electron" modified="2023-11-17T20:37:16.111Z" agent="Mozilla/5.0 (Windows NT 10.0; Win64; x64) AppleWebKit/537.36 (KHTML, like Gecko) draw.io/22.0.1 Chrome/114.0.5735.289 Electron/25.8.4 Safari/537.36" etag="jeYAY_ZX3zYQFpVlGS_V" version="22.0.1" type="device">
  <diagram name="Page-1" id="AKGFEVJWhegFH3RxbXjJ">
    <mxGraphModel dx="2394" dy="951" grid="1" gridSize="10" guides="1" tooltips="1" connect="1" arrows="1" fold="1" page="1" pageScale="1" pageWidth="1100" pageHeight="850" math="1" shadow="0">
      <root>
        <mxCell id="0" />
        <mxCell id="1" parent="0" />
        <mxCell id="W1oGFjodtdUd1IemjTyj-57" value="" style="rounded=0;whiteSpace=wrap;html=1;fillColor=none;fontColor=#ffffff;strokeColor=#006EAF;dashed=1;dashPattern=12 12;" parent="1" vertex="1">
          <mxGeometry x="-85" y="470" width="850" height="1140" as="geometry" />
        </mxCell>
        <mxCell id="W1oGFjodtdUd1IemjTyj-54" value="" style="rounded=0;whiteSpace=wrap;html=1;fillColor=none;fontColor=#ffffff;strokeColor=#006EAF;dashed=1;dashPattern=12 12;" parent="1" vertex="1">
          <mxGeometry x="260" y="150" width="160" height="120" as="geometry" />
        </mxCell>
        <mxCell id="W1oGFjodtdUd1IemjTyj-7" style="edgeStyle=orthogonalEdgeStyle;rounded=0;orthogonalLoop=1;jettySize=auto;html=1;entryX=0.5;entryY=0;entryDx=0;entryDy=0;" parent="1" source="W1oGFjodtdUd1IemjTyj-1" target="W1oGFjodtdUd1IemjTyj-5" edge="1">
          <mxGeometry relative="1" as="geometry" />
        </mxCell>
        <mxCell id="W1oGFjodtdUd1IemjTyj-1" value="" style="whiteSpace=wrap;html=1;" parent="1" vertex="1">
          <mxGeometry x="280" y="180" width="120" height="60" as="geometry" />
        </mxCell>
        <mxCell id="W1oGFjodtdUd1IemjTyj-2" value="s_start" style="text;html=1;align=center;verticalAlign=middle;resizable=0;points=[];autosize=1;strokeColor=none;fillColor=none;" parent="1" vertex="1">
          <mxGeometry x="270" y="150" width="60" height="30" as="geometry" />
        </mxCell>
        <mxCell id="W1oGFjodtdUd1IemjTyj-4" style="edgeStyle=orthogonalEdgeStyle;rounded=0;orthogonalLoop=1;jettySize=auto;html=1;entryX=0.5;entryY=0;entryDx=0;entryDy=0;" parent="1" source="W1oGFjodtdUd1IemjTyj-3" target="W1oGFjodtdUd1IemjTyj-1" edge="1">
          <mxGeometry relative="1" as="geometry" />
        </mxCell>
        <mxCell id="W1oGFjodtdUd1IemjTyj-3" value="reset" style="text;html=1;align=center;verticalAlign=middle;resizable=0;points=[];autosize=1;strokeColor=none;fillColor=none;" parent="1" vertex="1">
          <mxGeometry x="315" y="90" width="50" height="30" as="geometry" />
        </mxCell>
        <mxCell id="W1oGFjodtdUd1IemjTyj-9" style="edgeStyle=orthogonalEdgeStyle;rounded=0;orthogonalLoop=1;jettySize=auto;html=1;entryX=0.5;entryY=0;entryDx=0;entryDy=0;" parent="1" source="W1oGFjodtdUd1IemjTyj-5" target="W1oGFjodtdUd1IemjTyj-10" edge="1">
          <mxGeometry relative="1" as="geometry">
            <mxPoint x="340" y="480" as="targetPoint" />
          </mxGeometry>
        </mxCell>
        <mxCell id="W1oGFjodtdUd1IemjTyj-5" value="" style="whiteSpace=wrap;html=1;" parent="1" vertex="1">
          <mxGeometry x="280" y="340" width="120" height="60" as="geometry" />
        </mxCell>
        <mxCell id="W1oGFjodtdUd1IemjTyj-6" value="s_draw" style="text;html=1;align=center;verticalAlign=middle;resizable=0;points=[];autosize=1;strokeColor=none;fillColor=none;" parent="1" vertex="1">
          <mxGeometry x="270" y="310" width="60" height="30" as="geometry" />
        </mxCell>
        <mxCell id="W1oGFjodtdUd1IemjTyj-15" style="edgeStyle=orthogonalEdgeStyle;rounded=0;orthogonalLoop=1;jettySize=auto;html=1;entryX=0.5;entryY=0;entryDx=0;entryDy=0;" parent="1" source="W1oGFjodtdUd1IemjTyj-10" target="W1oGFjodtdUd1IemjTyj-12" edge="1">
          <mxGeometry relative="1" as="geometry">
            <Array as="points">
              <mxPoint x="455" y="540" />
            </Array>
          </mxGeometry>
        </mxCell>
        <mxCell id="W1oGFjodtdUd1IemjTyj-22" style="edgeStyle=orthogonalEdgeStyle;rounded=0;orthogonalLoop=1;jettySize=auto;html=1;entryX=0.5;entryY=0;entryDx=0;entryDy=0;" parent="1" source="W1oGFjodtdUd1IemjTyj-10" target="W1oGFjodtdUd1IemjTyj-20" edge="1">
          <mxGeometry relative="1" as="geometry">
            <Array as="points">
              <mxPoint x="225" y="540" />
            </Array>
          </mxGeometry>
        </mxCell>
        <mxCell id="W1oGFjodtdUd1IemjTyj-10" value="is_steep" style="rhombus;whiteSpace=wrap;html=1;" parent="1" vertex="1">
          <mxGeometry x="275" y="500" width="130" height="80" as="geometry" />
        </mxCell>
        <mxCell id="W1oGFjodtdUd1IemjTyj-14" style="edgeStyle=orthogonalEdgeStyle;rounded=0;orthogonalLoop=1;jettySize=auto;html=1;entryX=0.5;entryY=0;entryDx=0;entryDy=0;" parent="1" source="W1oGFjodtdUd1IemjTyj-12" target="W1oGFjodtdUd1IemjTyj-13" edge="1">
          <mxGeometry relative="1" as="geometry" />
        </mxCell>
        <mxCell id="W1oGFjodtdUd1IemjTyj-12" value="&lt;span style=&quot;font-weight: 400;&quot;&gt;x &amp;lt;= my_x0&lt;/span&gt;" style="rounded=1;whiteSpace=wrap;html=1;arcSize=50;strokeWidth=1;whiteSpace=wrap;align=center;verticalAlign=middle;spacingLeft=0;fontStyle=1;fontSize=14;spacing=10;" parent="1" vertex="1">
          <mxGeometry x="405" y="630" width="100" height="50" as="geometry" />
        </mxCell>
        <mxCell id="W1oGFjodtdUd1IemjTyj-24" style="edgeStyle=orthogonalEdgeStyle;rounded=0;orthogonalLoop=1;jettySize=auto;html=1;entryX=0.5;entryY=0;entryDx=0;entryDy=0;" parent="1" source="W1oGFjodtdUd1IemjTyj-13" target="W1oGFjodtdUd1IemjTyj-23" edge="1">
          <mxGeometry relative="1" as="geometry">
            <Array as="points">
              <mxPoint x="455" y="830" />
              <mxPoint x="340" y="830" />
            </Array>
          </mxGeometry>
        </mxCell>
        <mxCell id="W1oGFjodtdUd1IemjTyj-13" value="&lt;span style=&quot;font-weight: 400;&quot;&gt;y &amp;lt;= my_y0&lt;/span&gt;" style="rounded=1;whiteSpace=wrap;html=1;arcSize=50;strokeWidth=1;whiteSpace=wrap;align=center;verticalAlign=middle;spacingLeft=0;fontStyle=1;fontSize=14;spacing=10;" parent="1" vertex="1">
          <mxGeometry x="405" y="740" width="100" height="50" as="geometry" />
        </mxCell>
        <mxCell id="W1oGFjodtdUd1IemjTyj-19" style="edgeStyle=orthogonalEdgeStyle;rounded=0;orthogonalLoop=1;jettySize=auto;html=1;entryX=0.5;entryY=0;entryDx=0;entryDy=0;" parent="1" source="W1oGFjodtdUd1IemjTyj-20" target="W1oGFjodtdUd1IemjTyj-21" edge="1">
          <mxGeometry relative="1" as="geometry" />
        </mxCell>
        <mxCell id="W1oGFjodtdUd1IemjTyj-20" value="&lt;span style=&quot;font-weight: 400;&quot;&gt;x &amp;lt;= my_y0&lt;/span&gt;" style="rounded=1;whiteSpace=wrap;html=1;arcSize=50;strokeWidth=1;whiteSpace=wrap;align=center;verticalAlign=middle;spacingLeft=0;fontStyle=1;fontSize=14;spacing=10;" parent="1" vertex="1">
          <mxGeometry x="175" y="630" width="100" height="50" as="geometry" />
        </mxCell>
        <mxCell id="W1oGFjodtdUd1IemjTyj-25" style="edgeStyle=orthogonalEdgeStyle;rounded=0;orthogonalLoop=1;jettySize=auto;html=1;entryX=0.5;entryY=0;entryDx=0;entryDy=0;" parent="1" source="W1oGFjodtdUd1IemjTyj-21" target="W1oGFjodtdUd1IemjTyj-23" edge="1">
          <mxGeometry relative="1" as="geometry">
            <Array as="points">
              <mxPoint x="225" y="830" />
              <mxPoint x="340" y="830" />
            </Array>
          </mxGeometry>
        </mxCell>
        <mxCell id="W1oGFjodtdUd1IemjTyj-21" value="&lt;span style=&quot;font-weight: 400;&quot;&gt;y &amp;lt;= my_x0&lt;/span&gt;" style="rounded=1;whiteSpace=wrap;html=1;arcSize=50;strokeWidth=1;whiteSpace=wrap;align=center;verticalAlign=middle;spacingLeft=0;fontStyle=1;fontSize=14;spacing=10;" parent="1" vertex="1">
          <mxGeometry x="175" y="740" width="100" height="50" as="geometry" />
        </mxCell>
        <mxCell id="W1oGFjodtdUd1IemjTyj-27" style="edgeStyle=orthogonalEdgeStyle;rounded=0;orthogonalLoop=1;jettySize=auto;html=1;entryX=0.5;entryY=0;entryDx=0;entryDy=0;" parent="1" source="W1oGFjodtdUd1IemjTyj-23" target="W1oGFjodtdUd1IemjTyj-26" edge="1">
          <mxGeometry relative="1" as="geometry" />
        </mxCell>
        <mxCell id="W1oGFjodtdUd1IemjTyj-23" value="&lt;span style=&quot;font-weight: 400;&quot;&gt;my_x0++&lt;/span&gt;" style="rounded=1;whiteSpace=wrap;html=1;arcSize=50;strokeWidth=1;whiteSpace=wrap;align=center;verticalAlign=middle;spacingLeft=0;fontStyle=1;fontSize=14;spacing=10;" parent="1" vertex="1">
          <mxGeometry x="290" y="890" width="100" height="50" as="geometry" />
        </mxCell>
        <mxCell id="W1oGFjodtdUd1IemjTyj-30" style="edgeStyle=orthogonalEdgeStyle;rounded=0;orthogonalLoop=1;jettySize=auto;html=1;entryX=0.5;entryY=0;entryDx=0;entryDy=0;" parent="1" source="W1oGFjodtdUd1IemjTyj-26" target="W1oGFjodtdUd1IemjTyj-28" edge="1">
          <mxGeometry relative="1" as="geometry">
            <Array as="points">
              <mxPoint x="175" y="1050" />
            </Array>
          </mxGeometry>
        </mxCell>
        <mxCell id="W1oGFjodtdUd1IemjTyj-60" style="edgeStyle=orthogonalEdgeStyle;rounded=0;orthogonalLoop=1;jettySize=auto;html=1;entryX=0.5;entryY=0;entryDx=0;entryDy=0;" parent="1" source="W1oGFjodtdUd1IemjTyj-26" target="W1oGFjodtdUd1IemjTyj-32" edge="1">
          <mxGeometry relative="1" as="geometry">
            <Array as="points">
              <mxPoint x="490" y="1050" />
            </Array>
          </mxGeometry>
        </mxCell>
        <mxCell id="W1oGFjodtdUd1IemjTyj-26" value="error_bool" style="rhombus;whiteSpace=wrap;html=1;" parent="1" vertex="1">
          <mxGeometry x="275" y="1010" width="130" height="80" as="geometry" />
        </mxCell>
        <mxCell id="W1oGFjodtdUd1IemjTyj-31" style="edgeStyle=orthogonalEdgeStyle;rounded=0;orthogonalLoop=1;jettySize=auto;html=1;exitX=0.5;exitY=1;exitDx=0;exitDy=0;entryX=0.5;entryY=0;entryDx=0;entryDy=0;" parent="1" source="W1oGFjodtdUd1IemjTyj-28" target="W1oGFjodtdUd1IemjTyj-29" edge="1">
          <mxGeometry relative="1" as="geometry" />
        </mxCell>
        <mxCell id="W1oGFjodtdUd1IemjTyj-28" value="&lt;span style=&quot;font-weight: 400;&quot;&gt;my_y0 &amp;lt;= my_y0 + y_step&lt;/span&gt;" style="rounded=1;whiteSpace=wrap;html=1;arcSize=50;strokeWidth=1;whiteSpace=wrap;align=center;verticalAlign=middle;spacingLeft=0;fontStyle=1;fontSize=14;spacing=10;" parent="1" vertex="1">
          <mxGeometry x="65" y="1220" width="220" height="50" as="geometry" />
        </mxCell>
        <mxCell id="W1oGFjodtdUd1IemjTyj-41" style="edgeStyle=orthogonalEdgeStyle;rounded=0;orthogonalLoop=1;jettySize=auto;html=1;entryX=0.5;entryY=0;entryDx=0;entryDy=0;" parent="1" source="W1oGFjodtdUd1IemjTyj-29" target="W1oGFjodtdUd1IemjTyj-40" edge="1">
          <mxGeometry relative="1" as="geometry">
            <Array as="points">
              <mxPoint x="175" y="1390" />
              <mxPoint x="340" y="1390" />
            </Array>
          </mxGeometry>
        </mxCell>
        <mxCell id="W1oGFjodtdUd1IemjTyj-29" value="&lt;span style=&quot;font-weight: 400;&quot;&gt;error &amp;lt;= (is_steep) ? error + delta_x - delta_y : error + delta_y - delta_x&lt;/span&gt;" style="rounded=1;whiteSpace=wrap;html=1;arcSize=50;strokeWidth=1;whiteSpace=wrap;align=center;verticalAlign=middle;spacingLeft=0;fontStyle=1;fontSize=14;spacing=10;" parent="1" vertex="1">
          <mxGeometry x="-60" y="1290" width="470" height="50" as="geometry" />
        </mxCell>
        <mxCell id="W1oGFjodtdUd1IemjTyj-42" style="edgeStyle=orthogonalEdgeStyle;rounded=0;orthogonalLoop=1;jettySize=auto;html=1;entryX=0.5;entryY=0;entryDx=0;entryDy=0;" parent="1" source="W1oGFjodtdUd1IemjTyj-32" target="W1oGFjodtdUd1IemjTyj-40" edge="1">
          <mxGeometry relative="1" as="geometry">
            <Array as="points">
              <mxPoint x="490" y="1390" />
              <mxPoint x="340" y="1390" />
            </Array>
          </mxGeometry>
        </mxCell>
        <mxCell id="W1oGFjodtdUd1IemjTyj-32" value="&lt;span style=&quot;font-weight: 400;&quot;&gt;error &amp;lt;= (is_steep) ? error + delta_x : error + delta_y&lt;/span&gt;" style="rounded=1;whiteSpace=wrap;html=1;arcSize=50;strokeWidth=1;whiteSpace=wrap;align=center;verticalAlign=middle;spacingLeft=0;fontStyle=1;fontSize=14;spacing=10;" parent="1" vertex="1">
          <mxGeometry x="255" y="1145" width="470" height="50" as="geometry" />
        </mxCell>
        <mxCell id="W1oGFjodtdUd1IemjTyj-34" value="0" style="text;html=1;align=center;verticalAlign=middle;resizable=0;points=[];autosize=1;strokeColor=none;fillColor=none;" parent="1" vertex="1">
          <mxGeometry x="390" y="1020" width="30" height="30" as="geometry" />
        </mxCell>
        <mxCell id="W1oGFjodtdUd1IemjTyj-35" value="1" style="text;html=1;align=center;verticalAlign=middle;resizable=0;points=[];autosize=1;strokeColor=none;fillColor=none;" parent="1" vertex="1">
          <mxGeometry x="260" y="1020" width="30" height="30" as="geometry" />
        </mxCell>
        <mxCell id="W1oGFjodtdUd1IemjTyj-36" value="1" style="text;html=1;align=center;verticalAlign=middle;resizable=0;points=[];autosize=1;strokeColor=none;fillColor=none;" parent="1" vertex="1">
          <mxGeometry x="260" y="500" width="30" height="30" as="geometry" />
        </mxCell>
        <mxCell id="W1oGFjodtdUd1IemjTyj-38" value="0" style="text;html=1;align=center;verticalAlign=middle;resizable=0;points=[];autosize=1;strokeColor=none;fillColor=none;" parent="1" vertex="1">
          <mxGeometry x="390" y="500" width="30" height="30" as="geometry" />
        </mxCell>
        <mxCell id="W1oGFjodtdUd1IemjTyj-47" style="edgeStyle=orthogonalEdgeStyle;rounded=0;orthogonalLoop=1;jettySize=auto;html=1;exitX=0;exitY=0.5;exitDx=0;exitDy=0;" parent="1" source="W1oGFjodtdUd1IemjTyj-40" edge="1">
          <mxGeometry relative="1" as="geometry">
            <mxPoint x="340" y="290" as="targetPoint" />
            <Array as="points">
              <mxPoint x="-120" y="1530" />
              <mxPoint x="-120" y="290" />
            </Array>
          </mxGeometry>
        </mxCell>
        <mxCell id="W1oGFjodtdUd1IemjTyj-58" style="edgeStyle=orthogonalEdgeStyle;rounded=0;orthogonalLoop=1;jettySize=auto;html=1;entryX=0.5;entryY=0;entryDx=0;entryDy=0;" parent="1" source="W1oGFjodtdUd1IemjTyj-40" target="W1oGFjodtdUd1IemjTyj-50" edge="1">
          <mxGeometry relative="1" as="geometry" />
        </mxCell>
        <mxCell id="W1oGFjodtdUd1IemjTyj-40" value="my_x0 \(&amp;lt;\) my_x1" style="rhombus;whiteSpace=wrap;html=1;" parent="1" vertex="1">
          <mxGeometry x="275" y="1490" width="130" height="80" as="geometry" />
        </mxCell>
        <mxCell id="W1oGFjodtdUd1IemjTyj-45" value="1" style="text;html=1;align=center;verticalAlign=middle;resizable=0;points=[];autosize=1;strokeColor=none;fillColor=none;" parent="1" vertex="1">
          <mxGeometry x="255" y="1490" width="30" height="30" as="geometry" />
        </mxCell>
        <mxCell id="W1oGFjodtdUd1IemjTyj-46" value="0" style="text;html=1;align=center;verticalAlign=middle;resizable=0;points=[];autosize=1;strokeColor=none;fillColor=none;" parent="1" vertex="1">
          <mxGeometry x="310" y="1570" width="30" height="30" as="geometry" />
        </mxCell>
        <mxCell id="W1oGFjodtdUd1IemjTyj-53" style="edgeStyle=orthogonalEdgeStyle;rounded=0;orthogonalLoop=1;jettySize=auto;html=1;entryX=0.5;entryY=0;entryDx=0;entryDy=0;" parent="1" source="W1oGFjodtdUd1IemjTyj-50" target="W1oGFjodtdUd1IemjTyj-50" edge="1">
          <mxGeometry relative="1" as="geometry">
            <mxPoint x="200" y="1609.91" as="targetPoint" />
            <Array as="points">
              <mxPoint x="340" y="1790" />
              <mxPoint x="230" y="1790" />
              <mxPoint x="230" y="1630" />
              <mxPoint x="340" y="1630" />
            </Array>
          </mxGeometry>
        </mxCell>
        <mxCell id="W1oGFjodtdUd1IemjTyj-50" value="&lt;font style=&quot;font-size: 20px;&quot;&gt;done&lt;/font&gt;" style="whiteSpace=wrap;html=1;" parent="1" vertex="1">
          <mxGeometry x="280" y="1679.91" width="120" height="60" as="geometry" />
        </mxCell>
        <mxCell id="W1oGFjodtdUd1IemjTyj-51" value="s_done" style="text;html=1;align=center;verticalAlign=middle;resizable=0;points=[];autosize=1;strokeColor=none;fillColor=none;" parent="1" vertex="1">
          <mxGeometry x="270" y="1649.91" width="60" height="30" as="geometry" />
        </mxCell>
        <mxCell id="W1oGFjodtdUd1IemjTyj-56" value="" style="rounded=0;whiteSpace=wrap;html=1;fillColor=none;fontColor=#ffffff;strokeColor=#006EAF;dashed=1;dashPattern=12 12;" parent="1" vertex="1">
          <mxGeometry x="260" y="310" width="160" height="120" as="geometry" />
        </mxCell>
        <mxCell id="W1oGFjodtdUd1IemjTyj-61" value="" style="rounded=0;whiteSpace=wrap;html=1;fillColor=none;fontColor=#ffffff;strokeColor=#006EAF;dashed=1;dashPattern=12 12;" parent="1" vertex="1">
          <mxGeometry x="250" y="1649.91" width="180" height="120.09" as="geometry" />
        </mxCell>
        <mxCell id="1UU0w9zzYwNGCcIXZTbB-2" style="rounded=0;orthogonalLoop=1;jettySize=auto;html=1;exitX=0;exitY=0.5;exitDx=0;exitDy=0;entryX=1;entryY=0.5;entryDx=0;entryDy=0;fillColor=#fad9d5;strokeColor=#ae4132;dashed=1;dashPattern=12 12;" edge="1" parent="1" source="1UU0w9zzYwNGCcIXZTbB-1" target="W1oGFjodtdUd1IemjTyj-1">
          <mxGeometry relative="1" as="geometry" />
        </mxCell>
        <mxCell id="1UU0w9zzYwNGCcIXZTbB-1" value="&lt;font color=&quot;#000000&quot;&gt;initialize my_x0, my_x1, my_y0, my_y1, error&lt;/font&gt;" style="rounded=1;whiteSpace=wrap;html=1;fillColor=#fad9d5;strokeColor=#ae4132;" vertex="1" parent="1">
          <mxGeometry x="610" y="185" width="155" height="50" as="geometry" />
        </mxCell>
        <mxCell id="1UU0w9zzYwNGCcIXZTbB-3" value="\(\texttt{error_value = (is_steep) ? error + delta_x : error + delta_y}\)" style="text;html=1;align=left;verticalAlign=middle;resizable=0;points=[];autosize=1;strokeColor=none;fillColor=none;" vertex="1" parent="1">
          <mxGeometry x="-240" y="200" width="380" height="30" as="geometry" />
        </mxCell>
        <mxCell id="1UU0w9zzYwNGCcIXZTbB-4" value="\(\texttt{error_bool = (error_value $\geq$ 0)}\)" style="text;html=1;align=left;verticalAlign=middle;resizable=0;points=[];autosize=1;strokeColor=none;fillColor=none;" vertex="1" parent="1">
          <mxGeometry x="-240" y="230" width="260" height="30" as="geometry" />
        </mxCell>
        <mxCell id="1UU0w9zzYwNGCcIXZTbB-5" value="\(\texttt{delta_x = (x1 $&amp;gt;$ x0) ? x1 - x0 : x0 - x1}\)" style="text;html=1;align=left;verticalAlign=middle;resizable=0;points=[];autosize=1;strokeColor=none;fillColor=none;" vertex="1" parent="1">
          <mxGeometry x="-240" y="110" width="280" height="30" as="geometry" />
        </mxCell>
        <mxCell id="1UU0w9zzYwNGCcIXZTbB-6" value="\(\texttt{delta_y = (y1 $&amp;gt;$ y0) ? y1 - y0 : y0 - y1}\)" style="text;html=1;align=left;verticalAlign=middle;resizable=0;points=[];autosize=1;strokeColor=none;fillColor=none;" vertex="1" parent="1">
          <mxGeometry x="-240" y="140" width="280" height="30" as="geometry" />
        </mxCell>
        <mxCell id="1UU0w9zzYwNGCcIXZTbB-7" value="\(\texttt{is_steep = (delta_y $&amp;gt;$ delta_x)}\)" style="text;html=1;align=left;verticalAlign=middle;resizable=0;points=[];autosize=1;strokeColor=none;fillColor=none;" vertex="1" parent="1">
          <mxGeometry x="-240" y="170" width="250" height="30" as="geometry" />
        </mxCell>
      </root>
    </mxGraphModel>
  </diagram>
</mxfile>
